<svg xmlns="http://www.w3.org/2000/svg" width="700.409" height="585.597" viewBox="0 0 700.409 585.597">
  <g id="Group_18" data-name="Group 18" transform="translate(-259.591 -247.202)">
    <g id="Group_15" data-name="Group 15" transform="translate(259.591 247.201)">
      <ellipse id="Ellipse_95" data-name="Ellipse 95" cx="276.613" cy="14.145" rx="276.613" ry="14.145" transform="translate(52.371 557.307)" fill="#f2f2f2"/>
      <path id="Path_107" data-name="Path 107" d="M700.93,213.31h-3.142V127.226A49.823,49.823,0,0,0,647.965,77.4H465.583a49.823,49.823,0,0,0-49.823,49.823V599.491a49.823,49.823,0,0,0,49.823,49.823H647.965a49.823,49.823,0,0,0,49.823-49.823v-324.9h3.142Z" transform="translate(-210.338 -77.403)" fill="#3f3d56"/>
      <path id="Path_108" data-name="Path 108" d="M690.93,131.106v471.57a37.21,37.21,0,0,1-37.209,37.209H470.465a37.21,37.21,0,0,1-37.209-37.208V131.106A37.21,37.21,0,0,1,470.464,93.9H492.7a17.686,17.686,0,0,0,16.369,24.353H613.549A17.686,17.686,0,0,0,629.918,93.9h23.8a37.21,37.21,0,0,1,37.209,37.208Z" transform="translate(-214.085 -80.935)" fill="#fff"/>
      <path id="Path_111" data-name="Path 111" d="M625.223,230.173a70.714,70.714,0,0,0-36.808,131.1l.456.267q.566.342,1.132.66c.637.377,1.273.739,1.925,1.084.44.228.88.464,1.32.684a69.763,69.763,0,0,0,15.457,5.705c1.108.267,2.216.511,3.348.715a70.6,70.6,0,0,0,13.17,1.234c1.116,0,2.224-.024,3.332-.079q2.334-.106,4.621-.369,2.77-.307,5.469-.833a70.355,70.355,0,0,0,10.687-2.947c.44-.165.88-.33,1.312-.5q1.78-.684,3.5-1.462,1.886-.849,3.717-1.807a71.346,71.346,0,0,0,29.107-28.266c.031-.063.071-.126.1-.189a70.728,70.728,0,0,0-61.845-105Zm60.556,104.083c-.063.11-.118.22-.181.322a69.289,69.289,0,0,1-28.667,27.756q-1.8.943-3.67,1.768c-1.029.464-2.082.9-3.143,1.312-.448.173-.9.346-1.359.5a67.37,67.37,0,0,1-9.218,2.64,66.554,66.554,0,0,1-7.033,1.108c-1.454.157-2.931.267-4.416.322-.951.039-1.909.063-2.868.063a68.18,68.18,0,0,1-12.746-1.187,67.28,67.28,0,0,1-7.568-1.855,69.523,69.523,0,0,1-10.994-4.456c-.409-.212-.817-.424-1.218-.644-.574-.306-1.155-.621-1.721-.959-.424-.236-.849-.487-1.265-.739-.244-.141-.487-.291-.731-.44a69.207,69.207,0,1,1,96.8-25.516Z" transform="translate(-240.049 -110.121)" fill="#3f3d56"/>
      <path id="Path_114" data-name="Path 114" d="M417.279,317.136a3.517,3.517,0,0,1-2.6-1.151l-38.994-42.54a4.731,4.731,0,0,0-3.478-1.53H166.147a11.808,11.808,0,0,1-11.795-11.795V185.81a11.808,11.808,0,0,1,11.795-11.795H433.114a11.808,11.808,0,0,1,11.795,11.795v74.31a11.808,11.808,0,0,1-11.795,11.795h-7.569a4.724,4.724,0,0,0-4.719,4.719v36.96a3.516,3.516,0,0,1-2.255,3.3A3.556,3.556,0,0,1,417.279,317.136Z" transform="translate(-154.353 -98.094)" fill="#fff"/>
      <path id="Path_115" data-name="Path 115" d="M417.279,317.136a3.517,3.517,0,0,1-2.6-1.151l-38.994-42.54a4.731,4.731,0,0,0-3.478-1.53H166.147a11.808,11.808,0,0,1-11.795-11.795V185.81a11.808,11.808,0,0,1,11.795-11.795H433.114a11.808,11.808,0,0,1,11.795,11.795v74.31a11.808,11.808,0,0,1-11.795,11.795h-7.569a4.724,4.724,0,0,0-4.719,4.719v36.96a3.516,3.516,0,0,1-2.255,3.3A3.556,3.556,0,0,1,417.279,317.136ZM166.147,175.588a10.235,10.235,0,0,0-10.223,10.223v74.31a10.235,10.235,0,0,0,10.223,10.223h206.06a6.306,6.306,0,0,1,4.637,2.04l38.995,42.54a1.967,1.967,0,0,0,3.416-1.329v-36.96a6.3,6.3,0,0,1,6.29-6.291h7.569a10.235,10.235,0,0,0,10.223-10.223V185.81a10.235,10.235,0,0,0-10.223-10.223Z" transform="translate(-154.353 -98.094)" fill="#3f3d56"/>
      <circle id="Ellipse_98" data-name="Ellipse 98" cx="10.321" cy="10.321" r="10.321" transform="translate(18.61 88.06)" fill="#6c63ff"/>
      <path id="Path_116" data-name="Path 116" d="M426.069,272.269H183.184a5.5,5.5,0,1,1,0-11.009H426.069a5.5,5.5,0,1,1,0,11.009Z" transform="translate(-159.348 -116.779)" fill="#e6e6e6"/>
      <path id="Path_117" data-name="Path 117" d="M346.943,242.5H183.184a5.5,5.5,0,0,1,0-11.009H346.943a5.5,5.5,0,0,1,0,11.009Z" transform="translate(-159.348 -110.404)" fill="#e6e6e6"/>
      <path id="Path_118" data-name="Path 118" d="M702.241,637.892a3.516,3.516,0,0,1-2.255-3.3v-36.96a4.724,4.724,0,0,0-4.719-4.719H687.7A11.808,11.808,0,0,1,675.9,581.121v-74.31A11.808,11.808,0,0,1,687.7,495.016H954.667a11.808,11.808,0,0,1,11.795,11.795v74.31a11.808,11.808,0,0,1-11.795,11.795H748.605a4.731,4.731,0,0,0-3.478,1.53l-38.995,42.54a3.517,3.517,0,0,1-2.6,1.151,3.556,3.556,0,0,1-1.293-.244Z" transform="translate(-266.052 -166.842)" fill="#fff"/>
      <path id="Path_119" data-name="Path 119" d="M702.241,637.892a3.516,3.516,0,0,1-2.255-3.3v-36.96a4.724,4.724,0,0,0-4.719-4.719H687.7A11.808,11.808,0,0,1,675.9,581.121v-74.31A11.808,11.808,0,0,1,687.7,495.016H954.667a11.808,11.808,0,0,1,11.795,11.795v74.31a11.808,11.808,0,0,1-11.795,11.795H748.605a4.731,4.731,0,0,0-3.478,1.53l-38.995,42.54a3.517,3.517,0,0,1-2.6,1.151,3.556,3.556,0,0,1-1.293-.244ZM687.7,496.588a10.235,10.235,0,0,0-10.223,10.223v74.31A10.235,10.235,0,0,0,687.7,591.344h7.569a6.3,6.3,0,0,1,6.29,6.291v36.96a1.967,1.967,0,0,0,3.416,1.329l38.995-42.54a6.305,6.305,0,0,1,4.637-2.04H954.666a10.235,10.235,0,0,0,10.223-10.223v-74.31a10.235,10.235,0,0,0-10.223-10.223Z" transform="translate(-266.052 -166.842)" fill="#3f3d56"/>
      <path id="Path_122" data-name="Path 122" d="M536.235,682.632A70.7,70.7,0,1,1,574.4,671.458a70.7,70.7,0,0,1-38.168,11.174Zm0-139.878a69.16,69.16,0,1,0,69.153,69.155,69.161,69.161,0,0,0-69.153-69.155Z" transform="translate(-221.001 -176.737)" fill="#3f3d56"/>
      <circle id="Ellipse_101" data-name="Ellipse 101" cx="10.321" cy="10.321" r="10.321" transform="translate(432.744 339.526)" fill="#6c63ff"/>
      <path id="Path_123" data-name="Path 123" d="M953.066,592.269H710.184a5.5,5.5,0,1,1,0-11.009H953.069a5.5,5.5,0,0,1,0,11.009Z" transform="translate(-272.215 -185.313)" fill="#e6e6e6"/>
      <path id="Path_124" data-name="Path 124" d="M873.943,562.5H710.184a5.5,5.5,0,1,1,0-11.009H873.943a5.5,5.5,0,0,1,0,11.009Z" transform="translate(-272.215 -178.937)" fill="#e6e6e6"/>
      <ellipse id="Ellipse_102" data-name="Ellipse 102" cx="19.256" cy="2.137" rx="19.256" ry="2.137" transform="translate(416.601 473.811)" fill="#f2f2f2"/>
      <ellipse id="Ellipse_103" data-name="Ellipse 103" cx="19.256" cy="2.137" rx="19.256" ry="2.137" transform="translate(244.504 222.344)" fill="#f2f2f2"/>
      <g id="Group_3" data-name="Group 3" transform="translate(340.073 139.224)">
        <ellipse id="Ellipse_1" data-name="Ellipse 1" cx="18.982" cy="5.959" rx="18.982" ry="5.959" transform="translate(13.554 55.595) rotate(-110.918)" fill="#2f2e41"/>
        <ellipse id="Ellipse_21" data-name="Ellipse 21" cx="37.963" cy="37.963" rx="37.963" ry="37.963" transform="translate(9.468 17.462)" fill="#2f2e41"/>
        <rect id="Rectangle_9" data-name="Rectangle 9" width="11.533" height="20.664" transform="translate(49.465 85.219)" fill="#2f2e41"/>
        <rect id="Rectangle_10" data-name="Rectangle 10" width="11.533" height="20.664" transform="translate(28.017 85.219)" fill="#2f2e41"/>
        <ellipse id="Ellipse_22" data-name="Ellipse 22" cx="9.611" cy="3.604" rx="9.611" ry="3.604" transform="translate(42.045 102.519)" fill="#2f2e41"/>
        <ellipse id="Ellipse_23" data-name="Ellipse 23" cx="9.611" cy="3.604" rx="9.611" ry="3.604" transform="translate(20.734 102.039)" fill="#2f2e41"/>
        <ellipse id="Ellipse_24" data-name="Ellipse 24" cx="12.975" cy="12.975" rx="12.975" ry="12.975" transform="translate(30.741 39.04)" fill="#fff"/>
        <ellipse id="Ellipse_25" data-name="Ellipse 25" cx="4.325" cy="4.325" rx="4.325" ry="4.325" transform="translate(39.272 47.63)" fill="#3f3d56"/>
        <path id="Path_6" data-name="Path 6" d="M153.471,395.385c3.065-13.728-6.733-27.6-21.886-30.983s-29.921,5-32.987,18.731,6.977,18.791,22.13,22.175S150.406,409.113,153.471,395.385Z" transform="translate(-72.906 -363.652)" fill="#63ccff"/>
        <ellipse id="Ellipse_26" data-name="Ellipse 26" cx="5.959" cy="18.982" rx="5.959" ry="18.982" transform="translate(68.69 58.52) rotate(-115.374)" fill="#2f2e41"/>
        <path id="Path_7" data-name="Path 7" d="M177.8,526.675c0,3.716-9.567,11.053-20.183,11.053s-20.57-10.461-20.57-14.176,9.954.721,20.57.721S177.8,522.96,177.8,526.675Z" transform="translate(-114.245 -454.306)" fill="#fff"/>
      </g>
    </g>
    <g id="Group_8" data-name="Group 8" transform="translate(520.481 620.8)">
      <circle id="Ellipse_27" data-name="Ellipse 27" cx="35.809" cy="35.809" r="35.809" transform="translate(20.124 28.252)" fill="#2f2e41"/>
      <rect id="Rectangle_15" data-name="Rectangle 15" width="10.879" height="19.491" transform="translate(34.871 88.807) rotate(10.261)" fill="#2f2e41"/>
      <rect id="Rectangle_16" data-name="Rectangle 16" width="10.879" height="19.491" transform="translate(56.281 92.683) rotate(10.261)" fill="#2f2e41"/>
      <ellipse id="Ellipse_28" data-name="Ellipse 28" cx="9.066" cy="3.4" rx="9.066" ry="3.4" transform="translate(64.747 123.698) rotate(-139.739)" fill="#2f2e41"/>
      <ellipse id="Ellipse_29" data-name="Ellipse 29" cx="9.066" cy="3.4" rx="9.066" ry="3.4" transform="translate(43.783 119.903) rotate(-139.739)" fill="#2f2e41"/>
      <circle id="Ellipse_30" data-name="Ellipse 30" cx="12.239" cy="12.239" r="12.239" transform="translate(46.202 43.064)" fill="#fff"/>
      <circle id="Ellipse_31" data-name="Ellipse 31" cx="4.08" cy="4.08" r="4.08" transform="translate(59.391 46.836)" fill="#3f3d56"/>
      <path id="Path_8" data-name="Path 8" d="M893.49,106.965c-.539-13.257,10.887-24.486,25.52-25.08s26.932,9.671,27.47,22.928-9.633,16.269-24.266,16.864S894.029,120.222,893.49,106.965Z" transform="translate(-865.807 -81.86)" fill="#6c63ff"/>
      <ellipse id="Ellipse_32" data-name="Ellipse 32" cx="5.621" cy="17.905" rx="5.621" ry="17.905" transform="translate(72.803 67.017) rotate(-102.91)" fill="#2f2e41"/>
      <ellipse id="Ellipse_33" data-name="Ellipse 33" cx="5.621" cy="17.905" rx="5.621" ry="17.905" transform="translate(2.512 78.709) rotate(-102.91)" fill="#2f2e41"/>
      <path id="Path_9" data-name="Path 9" d="M934.242,249.19A8.159,8.159,0,0,0,950.3,252.1c.8-4.434-2.626-6-7.06-6.806S935.045,244.756,934.242,249.19Z" transform="translate(-888.144 -171.016)" fill="#fff"/>
    </g>
  </g>
</svg>
